<svg xmlns="http://www.w3.org/2000/svg" xmlns:xlink="http://www.w3.org/1999/xlink" width="78" height="78" viewBox="0 0 78 78">
    <defs>
        <linearGradient id="o68p918lic" x1="50%" x2="50%" y1="0%" y2="100%">
            <stop offset="0%" stop-color="#6D7FA1"/>
            <stop offset="100%" stop-color="#A6B1C8"/>
        </linearGradient>
        <filter id="xu4ev91eha">
            <feColorMatrix in="SourceGraphic" values="0 0 0 0 0.058446 0 0 0 0 0.812953 0 0 0 0 0.318621 0 0 0 1.000000 0"/>
        </filter>
        <path id="myju5gjqxb" d="M0 0L58.5 0 58.5 58.5 0 58.5z"/>
    </defs>
    <g fill="none" fill-rule="evenodd">
        <g>
            <g filter="url(#xu4ev91eha)" transform="translate(-143 -152) translate(10 130)">
                <g>
                    <g transform="translate(133 22) translate(9.75 9.75)">
                        <mask id="rjxu3ssz8d" fill="#fff">
                            <use xlink:href="#myju5gjqxb"/>
                        </mask>
                        <path fill="url(#o68p918lic)" d="M46.363 19.937c-.739-.74-1.938-.74-2.677 0L25.322 38.3 14.87 27.85c-.724-.725-1.898-.725-2.621 0-.725.723-.725 1.897 0 2.62l11.373 11.374c.09.178.185.353.333.501.738.74 1.937.74 2.676 0l19.731-19.73c.74-.74.74-1.94 0-2.678M29.25 58.5C13.095 58.5 0 45.405 0 29.25S13.095 0 29.25 0 58.5 13.095 58.5 29.25 45.405 58.5 29.25 58.5" mask="url(#rjxu3ssz8d)"/>
                    </g>
                </g>
            </g>
        </g>
    </g>
</svg>
